<?xml version="1.0" standalone="no"?>
<!DOCTYPE svg PUBLIC "-//W3C//DTD SVG 20010904//EN"
 "http://www.w3.org/TR/2001/REC-SVG-20010904/DTD/svg10.dtd">
<svg version="1.0" xmlns="http://www.w3.org/2000/svg"
 width="260.000000pt" height="260.000000pt" viewBox="0 0 260.000000 260.000000"
 preserveAspectRatio="xMidYMid meet">
<metadata>
Created by potrace 1.11, written by Peter Selinger 2001-2013
</metadata>
<g transform="translate(0.000000,260.000000) scale(0.100000,-0.100000)"
fill="#000000" stroke="none">
<path d="M1977 2523 c-23 -12 -27 -20 -27 -58 0 -25 5 -45 10 -45 6 0 10 -13
10 -29 0 -17 5 -33 10 -36 6 -3 10 -17 10 -30 0 -13 5 -27 10 -30 6 -3 10 -17
10 -30 0 -13 5 -27 10 -30 6 -3 10 -22 10 -41 0 -20 6 -42 14 -50 8 -7 12 -23
9 -34 -4 -13 0 -20 9 -20 10 0 13 -8 10 -30 -3 -18 0 -30 7 -30 6 0 11 -8 11
-18 0 -19 -30 -26 -41 -10 -4 6 -141 9 -327 9 -219 0 -321 3 -319 10 3 14
-309 15 -326 1 -8 -7 -103 -11 -257 -11 -167 1 -246 -3 -248 -10 -2 -6 -8 -11
-13 -11 -13 0 -11 37 2 46 6 3 9 17 6 31 -2 13 1 30 9 37 7 8 14 37 15 65 2
28 6 51 11 51 4 0 8 15 8 34 0 19 5 38 10 41 6 3 10 28 10 56 0 27 5 49 10 49
6 0 10 18 10 40 0 31 4 40 18 40 14 0 12 4 -8 19 -13 11 -31 19 -40 19 -8 -1
-22 1 -30 3 -11 3 -16 -6 -18 -36 -2 -22 -9 -43 -16 -47 -9 -5 -11 -19 -7 -45
5 -28 2 -42 -10 -54 -11 -11 -15 -26 -11 -44 3 -17 0 -30 -9 -35 -8 -6 -12
-25 -10 -54 1 -32 -2 -48 -12 -52 -9 -3 -13 -16 -11 -35 2 -17 -2 -40 -9 -52
-7 -12 -12 -34 -11 -49 l1 -28 -78 0 c-43 0 -81 -4 -84 -10 -4 -6 -53 -10
-115 -10 l-108 0 2 -31 c1 -16 -1 -32 -5 -35 -5 -3 -6 -11 -2 -19 6 -17 58
-21 68 -5 3 5 58 9 126 9 67 -1 125 3 132 9 7 6 76 11 157 11 83 1 146 6 148
12 5 13 1142 12 1142 -1 0 -6 -18 -10 -39 -10 -22 0 -41 -4 -43 -9 -1 -6 -14
-12 -28 -14 -37 -6 -80 -25 -80 -36 0 -5 -10 -13 -22 -16 -30 -9 -118 -98
-118 -119 0 -9 -4 -16 -10 -16 -5 0 -10 -9 -10 -20 0 -11 -5 -20 -11 -20 -5 0
-9 -8 -8 -17 2 -10 -2 -27 -8 -38 -18 -32 -13 -197 6 -212 9 -7 13 -13 9 -13
-4 0 4 -20 18 -45 13 -25 22 -45 20 -45 -3 0 18 -22 46 -49 33 -32 57 -47 67
-43 9 3 13 1 9 -3 -7 -7 27 -39 42 -40 3 -1 15 -6 28 -13 12 -7 22 -10 22 -6
0 3 10 0 23 -8 25 -16 223 -18 248 -2 16 10 20 11 50 13 12 1 17 5 13 12 -4 7
-1 10 7 7 12 -4 30 7 86 52 7 6 15 10 18 10 10 0 70 73 67 82 -1 5 5 11 13 14
8 3 12 11 8 17 -3 5 0 15 8 21 8 6 15 20 15 31 0 11 5 19 10 18 16 -3 11 196
-4 206 -7 4 -10 15 -7 23 3 8 0 22 -8 29 -7 8 -17 26 -20 41 -4 15 -18 38 -31
52 -14 13 -22 27 -19 30 4 3 0 6 -8 6 -8 0 -21 9 -29 20 -8 11 -21 20 -30 20
-9 0 -22 9 -30 20 -8 11 -22 20 -32 20 -10 0 -18 5 -18 11 0 6 -12 9 -27 7
-14 -2 -28 2 -30 9 -6 16 353 18 362 3 4 -6 32 -10 64 -10 l58 0 2 50 1 50
-163 2 -162 3 1 35 c0 19 -4 38 -10 42 -6 4 -12 19 -13 34 -1 15 -8 31 -15 35
-7 4 -9 11 -6 15 4 3 0 20 -8 37 -9 16 -14 40 -11 53 2 13 -1 25 -8 28 -7 2
-12 17 -12 31 0 15 -6 31 -13 35 -6 4 -10 18 -8 31 2 15 -2 23 -9 22 -9 -2
-13 9 -13 32 0 19 -4 35 -10 35 -5 0 -10 12 -10 26 0 40 -20 55 -53 37z"/>
<path d="M594 1879 c-3 -5 -18 -9 -35 -9 -16 0 -29 -4 -29 -10 0 -5 -8 -10
-18 -10 -10 0 -24 -9 -32 -20 -8 -11 -21 -20 -29 -20 -8 0 -36 -22 -63 -50
-27 -27 -46 -50 -42 -50 3 0 -1 -11 -10 -25 -9 -14 -13 -25 -9 -25 5 0 0 -5
-9 -10 -10 -7 -15 -19 -13 -32 3 -12 -1 -25 -8 -30 -19 -11 -18 -188 1 -210 8
-10 11 -18 7 -18 -4 0 0 -9 9 -19 10 -11 15 -24 12 -29 -3 -6 1 -13 10 -16 8
-3 13 -10 10 -15 -3 -5 10 -23 29 -40 19 -17 35 -35 35 -40 0 -5 10 -13 23
-16 12 -4 34 -19 50 -33 15 -14 27 -22 27 -18 0 5 7 2 16 -5 9 -8 27 -12 40
-11 15 2 24 -2 24 -10 0 -10 26 -13 113 -12 62 0 119 4 125 8 7 4 25 10 40 12
15 3 28 9 30 15 2 5 11 9 20 9 10 0 23 9 30 20 7 11 21 20 32 20 11 0 20 5 20
11 0 6 7 9 14 6 10 -4 13 -1 9 9 -3 8 -2 14 3 12 5 -2 10 1 11 5 1 5 10 16 20
25 10 9 19 24 21 32 2 8 8 17 13 18 5 2 9 12 9 23 0 10 5 19 12 19 6 0 8 3 5
7 -4 3 -1 16 6 27 16 24 20 198 5 207 -5 3 -10 17 -10 30 -1 13 -8 32 -16 42
-8 9 -11 17 -7 17 4 0 1 8 -8 18 -10 10 -14 22 -11 25 4 4 -1 9 -10 13 -9 3
-13 10 -10 15 3 5 1 9 -5 9 -5 0 -22 14 -38 30 -15 17 -35 30 -43 30 -8 0 -21
9 -28 20 -7 12 -16 18 -21 15 -5 -2 -14 2 -21 10 -7 8 -25 15 -41 15 -16 0
-29 5 -29 10 0 13 -228 12 -236 -1z"/>
<path d="M913 1058 c-26 -13 -30 -40 -8 -61 8 -8 11 -18 7 -21 -3 -4 -1 -11 6
-15 7 -4 14 -21 16 -36 2 -16 8 -31 15 -33 6 -2 9 -8 6 -13 -3 -4 1 -19 10
-32 8 -13 12 -27 8 -32 -5 -4 -2 -5 5 -1 6 4 13 2 13 -3 1 -6 2 -16 3 -21 0
-6 7 -14 14 -19 7 -4 12 -12 10 -17 -1 -5 3 -19 10 -30 6 -12 8 -25 4 -29 -4
-5 -1 -5 6 -1 10 6 17 -6 10 -18 -2 -2 5 -13 15 -24 11 -12 16 -26 11 -33 -4
-8 -3 -10 4 -5 12 7 16 -5 13 -31 -1 -7 6 -13 15 -13 10 0 14 -5 10 -15 -3 -9
1 -18 10 -22 9 -3 14 -13 11 -24 -3 -10 -1 -19 3 -21 7 -3 93 -164 96 -180 1
-5 2 -13 3 -19 0 -5 6 -7 13 -3 7 5 9 0 6 -14 -4 -13 0 -23 8 -26 8 -3 14 -9
13 -13 -6 -33 3 -49 28 -51 15 -1 31 -6 36 -11 12 -12 37 11 37 33 0 9 5 16
10 16 6 0 10 9 10 20 0 11 4 20 8 20 10 0 37 70 34 88 -2 6 2 12 8 12 5 0 10
9 10 20 0 11 7 23 15 26 8 4 13 10 10 14 -6 9 26 70 37 70 4 0 5 6 2 14 -3 8
0 25 7 38 7 13 12 29 11 36 -2 6 5 12 14 12 10 0 14 3 11 6 -3 4 -1 16 5 28 7
11 11 25 10 30 -2 4 4 19 13 32 8 13 12 24 9 24 -4 0 0 8 9 18 15 17 17 21 17
43 0 5 4 8 9 4 6 -3 8 3 6 14 -2 11 3 22 12 25 10 4 14 15 11 31 -3 15 0 26
10 30 8 3 12 12 9 19 -3 8 1 17 10 20 8 4 13 13 9 21 -3 8 -1 15 4 15 5 0 12
11 16 25 3 14 10 22 15 19 5 -3 9 -1 9 4 0 10 -40 48 -46 45 -2 -1 -10 0 -19
3 -8 3 -22 -1 -30 -10 -9 -9 -14 -16 -10 -16 3 0 -2 -11 -11 -25 -9 -14 -12
-25 -8 -25 5 0 3 -4 -4 -9 -7 -4 -14 -16 -16 -25 -1 -10 -7 -21 -14 -25 -6 -3
-10 -15 -8 -26 2 -11 -3 -26 -11 -33 -7 -8 -11 -18 -7 -23 3 -5 -2 -12 -10
-15 -9 -3 -16 -14 -16 -24 0 -11 -5 -22 -11 -26 -6 -3 -9 -15 -6 -25 3 -10 0
-23 -7 -28 -7 -6 -18 -26 -26 -46 -7 -19 -18 -35 -23 -35 -5 0 -6 -7 -3 -15 3
-9 -1 -18 -9 -21 -9 -4 -13 -16 -11 -34 2 -18 -2 -31 -10 -34 -8 -3 -14 -15
-14 -26 0 -14 -4 -19 -12 -14 -7 5 -9 2 -5 -9 3 -8 -1 -21 -8 -27 -8 -7 -12
-16 -9 -21 3 -5 1 -9 -4 -9 -6 0 -8 -10 -4 -22 3 -14 2 -19 -6 -14 -8 5 -12 0
-12 -12 0 -23 -25 -46 -39 -38 -6 4 -8 13 -4 21 3 8 0 15 -6 15 -6 0 -11 9
-11 20 0 11 -3 20 -7 20 -9 0 -33 49 -33 67 0 7 -4 13 -10 13 -5 0 -10 9 -10
20 0 11 -4 20 -10 20 -5 0 -10 9 -10 20 0 11 -3 20 -7 20 -9 0 -33 49 -33 67
0 7 -4 13 -10 13 -5 0 -10 9 -10 20 0 11 -4 20 -10 20 -5 0 -10 9 -10 19 0 10
-7 21 -15 25 -8 3 -12 12 -9 19 3 8 -2 17 -10 20 -9 4 -13 13 -10 20 3 8 -2
17 -10 20 -9 4 -13 13 -10 20 3 8 -2 17 -11 21 -9 3 -13 11 -9 17 4 7 -1 18
-11 26 -11 7 -16 13 -12 13 4 0 -4 20 -17 45 -14 25 -22 45 -18 45 4 0 -2 7
-12 15 -11 8 -17 18 -13 21 9 9 -12 34 -27 33 -6 0 -21 -5 -33 -11z"/>
</g>
</svg>
